<?xml version="1.0" encoding="utf-8"?>
<!-- Generator: Adobe Illustrator 26.0.2, SVG Export Plug-In . SVG Version: 6.00 Build 0)  -->
<svg version="1.1" id="Layer_1" xmlns="http://www.w3.org/2000/svg" xmlns:xlink="http://www.w3.org/1999/xlink" x="0px" y="0px"
	 viewBox="0 0 218 62" style="enable-background:new 0 0 218 62;" xml:space="preserve">
<style type="text/css">
	.st0{fill-rule:evenodd;clip-rule:evenodd;fill:url(#SVGID_1_);}
	.st1{fill-rule:evenodd;clip-rule:evenodd;fill:url(#SVGID_00000047055013711991326960000006045904969167163042_);}
	.st2{display:none;fill-rule:evenodd;clip-rule:evenodd;fill:url(#SVGID_00000152239972072250998820000011480099467855137457_);}
	.st3{fill:#FFFFFF;}
	.st4{fill-rule:evenodd;clip-rule:evenodd;fill:#FFFFFF;}
</style>
<g>
	
		<linearGradient id="SVGID_1_" gradientUnits="userSpaceOnUse" x1="27.2727" y1="1069.6111" x2="64.5996" y2="1039.1284" gradientTransform="matrix(1 0 0 1 0 -1014)">
		<stop  offset="0.2064" style="stop-color:#FFC456"/>
		<stop  offset="0.7579" style="stop-color:#A36105"/>
	</linearGradient>
	<path class="st0" d="M52,21.8c-2.8,17.4-11.7,27.2-29.3,30c9,7.3,20.4,7.5,29.4-3.6C59.1,37.9,58.8,30.1,52,21.8z"/>
	
		<linearGradient id="SVGID_00000145046211436025796060000004269071565363265181_" gradientUnits="userSpaceOnUse" x1="296.0079" y1="1322.1012" x2="-363.2278" y2="633.5368" gradientTransform="matrix(1 0 0 1 0 -1014)">
		<stop  offset="0" style="stop-color:#F8951D"/>
		<stop  offset="1" style="stop-color:#FBD008"/>
	</linearGradient>
	<path style="fill-rule:evenodd;clip-rule:evenodd;fill:url(#SVGID_00000145046211436025796060000004269071565363265181_);" d="
		M21.3,10.8c-4.5,0.2-4.1-5.7,2.6-8.5C41.4-5.3,61,12.4,61,33.1c0,6.6-1.8,11.2-6,16.6C40.8,67.9,10.8,65.7,1.5,38.6
		C-4,21.9,7.2,14,8.5,22.8C16.7,63.2,41.6,61.7,52,48C61.8,35.2,58.2,13,21.3,10.8z"/>
	
		<linearGradient id="SVGID_00000134971239090864934690000015236878694711658370_" gradientUnits="userSpaceOnUse" x1="54.6001" y1="1069.9253" x2="12.7758" y2="1026.2407" gradientTransform="matrix(1 0 0 1 0 -1014)">
		<stop  offset="0" style="stop-color:#F8951D"/>
		<stop  offset="0.26" style="stop-color:#F89820"/>
		<stop  offset="0.48" style="stop-color:#F9A328"/>
		<stop  offset="0.69" style="stop-color:#F9B537"/>
		<stop  offset="0.89" style="stop-color:#FACE4B"/>
		<stop  offset="1" style="stop-color:#FBDF59"/>
	</linearGradient>
	
		<path style="display:none;fill-rule:evenodd;clip-rule:evenodd;fill:url(#SVGID_00000134971239090864934690000015236878694711658370_);" d="
		M21.3,10.8c-4.5,0.2-4.1-5.7,2.6-8.5C41.4-5.3,61,12.4,61,33.1c0,6.6-1.8,11.2-6,16.6C40.8,67.9,10.8,65.7,1.6,38.6
		c-5.5-16.7,5.7-24.6,7-15.7C16.8,63.2,41.7,61.7,52.1,48C61.8,35.2,58.2,13,21.3,10.8z"/>
	<path class="st3" d="M66.8,31.5c1.3,0.7,2.7,1.2,4.2,1.2c2.4,0,3.7-1.3,3.7-3.1c0-1.8-1-2.7-3.4-3.5c-3-1.1-4.7-2.6-4.7-5.1
		c0-2.8,2.4-4.9,5.9-4.9c1.4,0,2.7,0.2,4,0.9l-0.6,1.9c-1.1-0.5-2.2-0.9-3.4-0.9c-2.5,0-3.4,1.5-3.4,2.7c0,1.7,1.1,2.6,3.5,3.5
		c3,1.2,4.6,2.7,4.6,5.2c0,2.7-2,5.1-6.3,5.1c-1.6,0-3.2-0.4-4.6-1.2L66.8,31.5z"/>
	<path class="st3" d="M83.2,17.7v3.6h3.3v1.8h-3.3v7.1c0,1.6,0.4,2.6,1.7,2.6c0.4,0,1,0,1.4-0.2l0.1,1.7c-0.6,0.2-1.4,0.3-2.1,0.3
		c-1,0-1.9-0.3-2.6-1c-0.7-1-1.1-2.1-1-3.3v-7.1h-1.9v-1.8h1.9v-3.1L83.2,17.7z"/>
	<path class="st3" d="M96.4,34.3l-0.1-1.6h-0.1c-1,1.2-2.4,1.9-4,1.9c-2,0.1-3.7-1.4-4-3.4c0-0.1,0-0.2,0-0.3c0-3.1,2.8-4.8,7.8-4.8
		v-0.2c0.2-1.5-0.9-2.8-2.4-3c-0.2,0-0.4,0-0.6,0c-1.2,0-2.4,0.3-3.3,1l-0.4-1.4c1.3-0.7,2.8-1.2,4.3-1.2c4,0,4.9,2.7,4.9,5.2v4.8
		c0,1.1,0,2,0.2,3.1L96.4,34.3z M96.1,27.8c-2.6,0-5.5,0.4-5.5,2.9c-0.1,1.2,0.7,2.1,1.9,2.2c0.1,0,0.2,0,0.3,0
		c1.4,0,2.7-0.9,3.1-2.1c0.1-0.2,0.1-0.4,0.1-0.7C96.1,30,96.1,27.8,96.1,27.8z"/>
	<path class="st3" d="M102.3,25.4c0-1.5,0-2.8-0.1-4h2l0.1,2.6h0.1c0.4-1.6,1.9-2.8,3.6-2.8c0.2,0,0.4,0,0.6,0.1v2.2
		c-0.2,0-0.5-0.1-0.9-0.1c-1.6,0.1-3,1.4-3.1,3c0,0.3-0.1,0.7-0.1,1.1v6.9h-2.4V25.4z"/>
	<path class="st3" d="M113.8,27.3c0.3-0.4,0.7-1,1.2-1.5l3.7-4.5h2.8l-5,5.4l5.7,7.6h-2.9l-4.5-6.2l-1.2,1.4v4.8h-2.1V15.4h2.4V27.3
		z"/>
	<path class="st3" d="M130,16.5c1.6-0.2,3.3-0.4,4.9-0.4c3.3,0,5.7,0.7,7.3,2.2c1.7,1.7,2.7,4.1,2.6,6.4c0.1,2.6-0.9,5.1-2.6,7.1
		c-1.6,1.6-4.5,2.6-7.9,2.6c-1.4,0-2.8-0.1-4.2-0.2L130,16.5z M132.4,32.5c0.7,0.1,1.6,0.2,2.4,0.1c4.9,0,7.7-2.8,7.7-7.6
		c0-4.2-2.4-6.9-7.3-6.9c-1,0-1.8,0.1-2.7,0.2L132.4,32.5L132.4,32.5z"/>
	<path class="st3" d="M150.6,17.7c-0.1,0.7-0.7,1.4-1.6,1.4c-0.7,0-1.3-0.6-1.4-1.4c0-0.7,0.6-1.4,1.4-1.5c0,0,0,0,0.1,0
		c0.7,0,1.4,0.5,1.4,1.4C150.6,17.7,150.6,17.7,150.6,17.7z M147.9,34.3V21.5h2.4v13L147.9,34.3L147.9,34.3z"/>
	<path class="st3" d="M165.5,21.5c0,1-0.1,1.9-0.1,3.5v7.5c0,3-0.6,4.8-1.8,5.9c-1.3,1.1-3,1.6-4.7,1.5c-1.5,0-3-0.3-4.3-1.1
		l0.5-1.8c1.2,0.6,2.5,1,3.7,1c2.4,0,4.2-1.3,4.2-4.5v-1.4l0,0c-0.9,1.4-2.5,2.2-4.1,2.1c-3.2,0-5.5-2.8-5.5-6.3
		c0-4.4,2.9-6.9,5.9-6.9c1.6-0.1,3.2,0.7,4.1,2.2l0,0l0.1-1.9h1.9V21.5z M163.1,26.5c0-0.3,0-0.7-0.1-1.1c-0.4-1.5-1.7-2.5-3.3-2.5
		c-2.2,0-3.9,1.9-3.9,4.9c0,2.6,1.3,4.7,3.9,4.7c1.5,0,2.8-1,3.3-2.4c0.1-0.4,0.2-0.9,0.2-1.3L163.1,26.5L163.1,26.5z"/>
	<path class="st3" d="M171.9,17.7c0,0.9-0.6,1.5-1.5,1.5c-0.9,0-1.5-0.6-1.5-1.5c0-0.7,0.6-1.4,1.4-1.5c0,0,0,0,0.1,0
		c0.7,0,1.4,0.5,1.5,1.3C171.9,17.7,171.9,17.7,171.9,17.7z M169.3,34.3V21.5h2.4v13L169.3,34.3L169.3,34.3z"/>
	<path class="st3" d="M178.6,17.7v3.6h3.4v1.8h-3.3v7.1c0,1.6,0.4,2.6,1.7,2.6c0.4,0,1,0,1.4-0.2l0.1,1.7c-0.6,0.2-1.4,0.3-2.1,0.3
		c-1,0-1.8-0.3-2.6-1c-0.7-1-1.1-2.1-1-3.3v-7.1h-1.9v-1.8h1.9v-3.1L178.6,17.7z"/>
	<path class="st3" d="M191.9,34.3l-0.2-1.6l0,0c-1,1.2-2.4,1.9-4,1.9c-2,0.1-3.7-1.4-4-3.4c0-0.1,0-0.2,0-0.3c0-3.1,2.8-4.8,7.7-4.8
		v-0.2c0.2-1.5-0.9-2.8-2.4-3c-0.2,0-0.4,0-0.6,0c-1.2,0-2.4,0.3-3.3,1l-0.5-1.5c1.3-0.7,2.8-1.2,4.2-1.2c4,0,4.9,2.7,4.9,5.2v4.8
		c0,1.1,0,2,0.2,3.1H191.9z M191.6,27.8c-2.6,0-5.5,0.4-5.5,2.9c-0.1,1.2,0.7,2.1,1.9,2.2c0.1,0,0.2,0,0.3,0c1.4,0,2.7-0.9,3.1-2.1
		c0.1-0.2,0.1-0.4,0.1-0.7V27.8z"/>
	<path class="st3" d="M197.8,15.4h2.4v18.9h-2.4V15.4z"/>
	<path class="st4" d="M201.4,10.3c0-2.3,1.9-4.2,4.2-4.2c2.3,0,4.2,1.9,4.2,4.2s-1.9,4.2-4.2,4.2C203.3,14.3,201.4,12.6,201.4,10.3z
		 M205.7,5.8c-2.5,0-4.4,1.9-4.4,4.4s1.9,4.4,4.4,4.4c2.5,0,4.4-1.9,4.4-4.4S208,5.8,205.7,5.8z"/>
	<g>
		<path class="st3" d="M208.6,11.8c-0.2,0-0.4,0-0.6,0c0-0.8,0-1.6,0-2.4c0,0,0,0,0,0c0,0.1,0,0.1-0.1,0.2c-0.2,0.7-0.4,1.4-0.5,2.2
			c0,0.1,0,0.1-0.1,0.1c-0.1,0-0.3,0-0.4,0c-0.1,0-0.1,0-0.1-0.1c-0.2-0.7-0.4-1.4-0.5-2.1c0-0.1,0-0.1-0.1-0.2c0,0.8,0,1.6,0,2.4
			c-0.2,0-0.4,0-0.6,0c0-1,0-2.1,0-3.1c0.1,0,0.2,0,0.3,0c0.2,0,0.4,0,0.5,0c0.1,0,0.1,0,0.1,0.1c0.2,0.7,0.3,1.3,0.5,2
			c0,0,0,0,0,0.1c0,0,0-0.1,0-0.1c0.2-0.7,0.4-1.3,0.5-2c0-0.1,0-0.1,0.1-0.1c0.3,0,0.5,0,0.8,0c0,0,0,0,0.1,0
			C208.6,9.8,208.6,10.8,208.6,11.8z"/>
		<path class="st3" d="M202.7,9.2c0-0.2,0-0.3,0-0.5c0.8,0,1.7,0,2.5,0c0,0.2,0,0.3,0,0.5c0,0,0,0-0.1,0c-0.3,0-0.5,0-0.8,0
			c-0.1,0-0.1,0-0.1,0.1c0,0.8,0,1.6,0,2.4c0,0,0,0.1,0,0.1c-0.2,0-0.4,0-0.6,0c0-0.9,0-1.7,0-2.6C203.3,9.2,203,9.2,202.7,9.2z"/>
	</g>
	<g>
		<path class="st3" d="M72.3,47c-0.1-0.9-0.1-2-0.1-2.8l0,0c-0.2,0.8-0.5,1.6-0.9,2.4l-1.2,3.1h-0.7l-1.1-3.1
			c-0.3-0.9-0.6-1.7-0.8-2.5l0,0c0,0.8-0.1,1.9-0.1,2.8l-0.2,2.7h-0.9l0.5-6.5h1.1l1.2,3.1c0.3,0.8,0.5,1.5,0.7,2.2l0,0
			c0.2-0.7,0.4-1.5,0.7-2.2l1.2-3.1h1.1l0.5,6.5h-0.9L72.3,47z"/>
		<path class="st3" d="M76.7,47.7c0,0.9,0.6,1.6,1.5,1.6c0.1,0,0.2,0,0.2,0c0.5,0,0.9-0.1,1.4-0.2l0.2,0.6c-0.5,0.2-1.1,0.3-1.6,0.3
			c-1.2,0.1-2.3-0.8-2.4-2c0-0.1,0-0.2,0-0.3c-0.1-1.3,0.8-2.4,2.1-2.5c0.1,0,0.2,0,0.2,0c1.1,0,2,0.9,2.1,2c0,0.1,0,0.1,0,0.2
			c0,0.1,0,0.3,0,0.4L76.7,47.7z M79.4,47.1c0.1-0.7-0.4-1.3-1.1-1.4c-0.1,0-0.1,0-0.2,0c-0.7,0-1.4,0.6-1.4,1.4H79.4z"/>
		<path class="st3" d="M87.2,43.1v5.6c0,0.4,0,0.9,0,1.2h-0.8v-0.8l0,0c-0.3,0.6-1,1-1.7,0.9c-1.2,0-2.1-1-2.1-2.2
			c0-0.1,0-0.1,0-0.2c-0.2-1.2,0.7-2.4,2-2.5c0.1,0,0.2,0,0.2,0c0.6,0,1.2,0.2,1.5,0.7l0,0v-2.7H87.2z M86.2,47.1c0-0.1,0-0.2,0-0.4
			c-0.2-0.6-0.7-1-1.3-0.9c-0.9,0-1.5,0.8-1.5,1.8c0,1,0.5,1.7,1.5,1.7c0.6,0,1.2-0.4,1.3-1c0-0.1,0-0.2,0-0.4L86.2,47.1z"/>
		<path class="st3" d="M91.2,43.9c0,0.3-0.2,0.6-0.6,0.6c-0.3,0-0.6-0.2-0.6-0.6c0-0.3,0.3-0.5,0.5-0.5c0,0,0,0,0,0
			C90.9,43.4,91.2,43.6,91.2,43.9C91.2,43.9,91.2,43.9,91.2,43.9z M90.2,49.8v-4.6h0.9v4.6H90.2z"/>
		<path class="st3" d="M96.8,49.8l-0.1-0.6l0,0c-0.4,0.5-0.9,0.7-1.5,0.7c-0.8,0.1-1.4-0.5-1.5-1.2c0,0,0-0.1,0-0.1
			c0-1.1,1.1-1.7,3-1.7v-0.1c0-0.4-0.1-1.1-1.1-1.1c-0.5,0-0.9,0.1-1.3,0.3l-0.2-0.5c0.5-0.3,1-0.4,1.6-0.4c0.9-0.1,1.8,0.5,1.9,1.5
			c0,0.1,0,0.3,0,0.4v1.7c0,0.4,0,0.7,0.1,1.1H96.8z M96.7,47.5c-0.9,0-2.1,0.1-2.1,1c0,0.4,0.3,0.8,0.7,0.8c0,0,0.1,0,0.1,0
			c0.5,0,1-0.3,1.2-0.8c0-0.1,0.1-0.2,0.1-0.3L96.7,47.5z"/>
		<path class="st3" d="M104.1,48.9c0.5,0.3,1,0.4,1.6,0.4c0.9,0,1.4-0.4,1.4-1.1c0-0.7-0.4-0.9-1.3-1.3c-1.1-0.4-1.8-0.9-1.8-1.8
			s0.9-1.7,2.2-1.7c0.5,0,1.1,0.1,1.5,0.3l-0.2,0.7c-0.4-0.2-0.9-0.3-1.3-0.3c-0.9,0-1.3,0.5-1.3,0.9c0,0.6,0.4,0.9,1.4,1.2
			c1.2,0.4,1.8,0.9,1.8,1.9s-0.8,1.9-2.4,1.9c-0.6,0-1.2-0.1-1.8-0.4L104.1,48.9z"/>
		<path class="st3" d="M111.3,47.7c0,0.8,0.6,1.6,1.4,1.6c0.1,0,0.2,0,0.3,0c0.5,0,0.9-0.1,1.4-0.2l0.2,0.6
			c-0.5,0.2-1.1,0.3-1.6,0.3c-1.2,0.1-2.3-0.8-2.4-2c0-0.1,0-0.2,0-0.3c-0.1-1.3,0.8-2.4,2.1-2.5c0.1,0,0.2,0,0.3,0
			c1.1,0,2,0.9,2.1,2c0,0.1,0,0.2,0,0.2c0,0.1,0,0.3,0,0.4L111.3,47.7z M114,47.1c0.1-0.7-0.4-1.3-1.1-1.4c-0.1,0-0.1,0-0.2,0
			c-0.7,0-1.3,0.6-1.4,1.4H114z"/>
		<path class="st3" d="M117.5,46.7c0-0.5,0-1,0-1.4h0.7v0.9h0c0.2-0.6,0.8-1.1,1.4-1.1c0.1,0,0.2,0,0.3,0v0.8c-0.1,0-0.2,0-0.3,0
			c-0.6,0-1.1,0.5-1.2,1.1c0,0.1,0,0.3,0,0.4v2.4h-0.9V46.7z"/>
		<path class="st3" d="M122.9,45.2l0.9,2.6c0.2,0.4,0.3,0.8,0.4,1.2l0,0c0.1-0.4,0.3-0.8,0.4-1.2l0.9-2.6h0.9l-1.8,4.6h-0.9
			l-1.9-4.6L122.9,45.2z"/>
		<path class="st3" d="M130,43.9c0,0.3-0.3,0.6-0.6,0.6c-0.3,0-0.6-0.2-0.6-0.6c0-0.3,0.3-0.5,0.5-0.5c0,0,0,0,0,0
			C129.8,43.4,130,43.6,130,43.9C130,43.9,130,43.9,130,43.9z M129,49.8v-4.6h0.9v4.6H129z"/>
		<path class="st3" d="M136.5,49.7c-0.5,0.2-0.9,0.3-1.4,0.3c-1.3,0.1-2.4-0.8-2.5-2.1c0-0.1,0-0.2,0-0.3c0-1.4,1-2.5,2.4-2.5
			c0.1,0,0.2,0,0.2,0c0.4,0,0.9,0.1,1.2,0.2l-0.2,0.6c-0.3-0.2-0.7-0.2-1-0.2c-1,0-1.7,0.8-1.7,1.7s0.8,1.7,1.7,1.7
			c0.4,0,0.8-0.1,1.1-0.2L136.5,49.7z"/>
		<path class="st3" d="M139.5,47.7c0,0.8,0.6,1.6,1.4,1.6c0.1,0,0.2,0,0.3,0c0.5,0,0.9-0.1,1.4-0.2l0.2,0.6
			c-0.5,0.2-1.1,0.3-1.6,0.3c-1.2,0.1-2.3-0.8-2.4-2c0-0.1,0-0.2,0-0.3c-0.1-1.3,0.8-2.4,2.1-2.5c0.1,0,0.2,0,0.2,0
			c1.1,0,2,0.9,2.1,2c0,0.1,0,0.2,0,0.2c0,0.1,0,0.3,0,0.4L139.5,47.7z M142.1,47.1c0.1-0.7-0.4-1.3-1.1-1.4c-0.1,0-0.1,0-0.2,0
			c-0.7,0-1.3,0.6-1.4,1.4H142.1z"/>
		<path class="st3" d="M145.5,49c0.4,0.2,0.8,0.3,1.2,0.3c0.7,0,0.9-0.3,0.9-0.7c0-0.4-0.3-0.6-0.9-0.8c-0.9-0.3-1.3-0.8-1.3-1.3
			c0-0.7,0.7-1.4,1.7-1.4c0.4,0,0.8,0.1,1.2,0.3l-0.2,0.6c-0.3-0.2-0.7-0.3-1-0.3c-0.5,0-0.8,0.3-0.8,0.6s0.3,0.5,0.9,0.8
			c0.9,0.3,1.3,0.7,1.3,1.4s-0.7,1.4-1.9,1.4c-0.5,0-1-0.1-1.4-0.3L145.5,49z"/>
		<path class="st3" d="M154.9,43.5c0.6-0.1,1.1-0.1,1.7-0.1c0.7-0.1,1.4,0.1,1.9,0.5c0.4,0.3,0.6,0.8,0.6,1.3c0,0.5-0.2,1-0.5,1.4
			c-0.6,0.5-1.3,0.8-2.1,0.7c-0.2,0-0.5,0-0.7-0.1v2.5h-0.9L154.9,43.5z M155.8,46.6c0.2,0.1,0.5,0.1,0.7,0.1c1.1,0,1.7-0.5,1.7-1.4
			c0-0.9-0.6-1.3-1.6-1.3c-0.3,0-0.6,0-0.8,0.1V46.6z"/>
		<path class="st3" d="M162.2,45.2l0.9,2.6c0.2,0.4,0.3,0.8,0.4,1.2l0,0c0.1-0.4,0.3-0.8,0.4-1.2l0.9-2.6h0.9l-1.9,4.6h-0.9
			l-1.9-4.6L162.2,45.2z"/>
		<path class="st3" d="M169.4,43.9v1.3h1.3v0.6h-1.3v2.5c0,0.6,0.2,0.9,0.7,0.9c0.2,0,0.4,0,0.5-0.1v0.6c-0.3,0.1-0.5,0.1-0.8,0.1
			c-0.3,0-0.7-0.1-0.9-0.3c-0.3-0.3-0.4-0.8-0.3-1.2v-2.5h-0.8v-0.6h0.8v-1.1L169.4,43.9z"/>
		<path class="st3" d="M173,49.4c0-0.3,0.2-0.6,0.6-0.6c0,0,0,0,0.1,0c0.3,0,0.6,0.2,0.7,0.5c0,0.3-0.2,0.6-0.5,0.7
			c-0.1,0-0.1,0-0.2,0C173.3,50,173,49.8,173,49.4C173,49.4,173,49.4,173,49.4z"/>
		<path class="st3" d="M180.5,43.4h0.9v5.8h3v0.7h-3.8L180.5,43.4z"/>
		<path class="st3" d="M187.9,43.9v1.3h1.3v0.6h-1.3v2.5c0,0.6,0.2,0.9,0.7,0.9c0.2,0,0.3,0,0.5-0.1v0.6c-0.3,0.1-0.5,0.1-0.8,0.1
			c-0.3,0-0.7-0.1-0.9-0.3c-0.3-0.3-0.4-0.8-0.3-1.2v-2.5h-0.7v-0.6h0.8v-1.1L187.9,43.9z"/>
		<path class="st3" d="M195.9,43.1v5.6c0,0.4,0,0.9,0,1.2h-0.8v-0.8l0,0c-0.3,0.6-1,1-1.7,0.9c-1.2,0-2.1-1-2.1-2.2
			c0-0.1,0-0.1,0-0.2c-0.2-1.2,0.7-2.4,2-2.5c0.1,0,0.2,0,0.2,0c0.6,0,1.2,0.2,1.5,0.7l0,0v-2.7H195.9z M195,47.1c0-0.1,0-0.2,0-0.4
			c-0.2-0.6-0.7-1-1.3-0.9c-0.9,0-1.5,0.8-1.5,1.8c0,1,0.5,1.7,1.5,1.7c0.6,0,1.2-0.4,1.3-1c0-0.1,0-0.2,0-0.4L195,47.1z"/>
		<path class="st3" d="M198.6,49.4c0-0.3,0.3-0.6,0.6-0.6c0,0,0,0,0,0c0.3,0,0.6,0.2,0.7,0.5s-0.2,0.6-0.5,0.7c-0.1,0-0.1,0-0.2,0
			C198.9,50,198.6,49.8,198.6,49.4C198.6,49.4,198.6,49.4,198.6,49.4z"/>
	</g>
</g>
</svg>
